<svg xmlns="http://www.w3.org/2000/svg" viewBox="0 0 1600 900" role="img" aria-labelledby="title desc">
  <title id="title">ICH project placeholder cover</title>
  <desc id="desc">Local fallback cover for heritage project cards and detail views.</desc>
  <defs>
    <linearGradient id="bg" x1="0%" x2="100%" y1="0%" y2="100%">
      <stop offset="0%" stop-color="#f8efe2" />
      <stop offset="55%" stop-color="#f3ddbf" />
      <stop offset="100%" stop-color="#d8b27f" />
    </linearGradient>
    <linearGradient id="card" x1="0%" x2="100%" y1="0%" y2="100%">
      <stop offset="0%" stop-color="#fffaf2" stop-opacity="0.95" />
      <stop offset="100%" stop-color="#f4e1c6" stop-opacity="0.9" />
    </linearGradient>
  </defs>
  <rect width="1600" height="900" fill="url(#bg)" rx="48" />
  <circle cx="1320" cy="180" r="140" fill="#ffffff" fill-opacity="0.16" />
  <circle cx="240" cy="760" r="180" fill="#9d5a3c" fill-opacity="0.12" />
  <path d="M0 720 C220 640 360 660 540 720 S920 840 1180 730 S1440 620 1600 690 L1600 900 L0 900 Z" fill="#8f4f38" fill-opacity="0.16" />
  <rect x="164" y="146" width="1272" height="608" rx="36" fill="url(#card)" stroke="#a46f46" stroke-opacity="0.28" />
  <g fill="none" stroke="#a46f46" stroke-linecap="round">
    <path d="M284 286 C398 196 510 196 624 286" stroke-width="18" stroke-opacity="0.34" />
    <path d="M976 268 C1084 208 1188 208 1296 268" stroke-width="16" stroke-opacity="0.22" />
    <path d="M320 604 C470 528 642 528 792 604" stroke-width="14" stroke-opacity="0.18" />
  </g>
  <g fill="#6a3d2a">
    <circle cx="358" cy="418" r="22" fill-opacity="0.35" />
    <circle cx="430" cy="418" r="22" fill-opacity="0.2" />
    <circle cx="502" cy="418" r="22" fill-opacity="0.12" />
  </g>
  <text x="800" y="408" text-anchor="middle" font-family="Georgia, serif" font-size="88" fill="#5d3224" letter-spacing="8">ICH ARCHIVE</text>
  <text x="800" y="494" text-anchor="middle" font-family="Arial, sans-serif" font-size="34" fill="#7d5641" letter-spacing="4">LOCAL MATERIAL PLACEHOLDER</text>
  <text x="800" y="560" text-anchor="middle" font-family="Arial, sans-serif" font-size="28" fill="#8d6751">Replace with licensed project cover or approved documentary still.</text>
</svg>
